<?xml version="1.0" encoding="utf-8"?>
<svg version="1.1" xmlns:xlink="http://www.w3.org/1999/xlink" width="40px" height="40px" xmlns="http://www.w3.org/2000/svg">
  <defs>
    <filter x="1003px" y="266px" width="40px" height="40px" filterUnits="userSpaceOnUse" id="filter9">
      <feOffset dx="1" dy="1" in="SourceAlpha" result="shadowOffsetInner" />
      <feGaussianBlur stdDeviation="2.5" in="shadowOffsetInner" result="shadowGaussian" />
      <feComposite in2="shadowGaussian" operator="atop" in="SourceAlpha" result="shadowComposite" />
      <feColorMatrix type="matrix" values="0 0 0 0 0  0 0 0 0 0  0 0 0 0 0  0 0 0 0.698039215686274 0  " in="shadowComposite" />
    </filter>
    <g id="widget10">
      <path d="M 1022 270  C 1030.4 270  1037 276.6  1037 285  C 1037 293.4  1030.4 300  1022 300  C 1013.6 300  1007 293.4  1007 285  C 1007 276.6  1013.6 270  1022 270  Z " fill-rule="nonzero" fill="#009dd9" stroke="none" />
      <path d="M 1022 270.5  C 1030.12 270.5  1036.5 276.88  1036.5 285  C 1036.5 293.12  1030.12 299.5  1022 299.5  C 1013.88 299.5  1007.5 293.12  1007.5 285  C 1007.5 276.88  1013.88 270.5  1022 270.5  Z " stroke-width="1" stroke="#ffffff" fill="none" />
    </g>
  </defs>
  <g transform="matrix(1 0 0 1 -1003 -266 )">
    <use xlink:href="#widget10" filter="url(#filter9)" />
    <use xlink:href="#widget10" />
  </g>
</svg>